<svg height="511pt" viewBox="0 -19 511.998 511" width="511pt" xmlns="http://www.w3.org/2000/svg"><path d="m501.972656.75h-84.21875c-5.535156 0-10.023437 4.488281-10.023437 10.027344 0 5.535156 4.488281 10.027344 10.023437 10.027344h74.195313v74.261718h-471.898438v-74.261718h308.136719c5.535156 0 10.027344-4.492188 10.027344-10.027344 0-5.539063-4.492188-10.027344-10.027344-10.027344h-318.160156c-5.539063 0-10.027344 4.488281-10.027344 10.027344v369.175781c0 5.535156 4.488281 10.023437 10.027344 10.023437h228.148437l-2.871093 16.878907c-.632813 3.714843.875 7.472656 3.898437 9.726562 3.03125 2.25 7.0625 2.613281 10.4375.9375l25.515625-12.652343 30.617188 63.792968c1.199218 2.492188 3.367187 4.378906 6.003906 5.214844.988281.316406 2.015625.472656 3.035156.472656 1.691406 0 3.367188-.429687 4.875-1.265625l36.589844-20.347656c4.707031-2.617187 6.503906-8.480469 4.074218-13.285156l-25.003906-49.46875h166.625c5.535156 0 10.023438-4.488281 10.023438-10.027344v-369.175781c.003906-5.539063-4.484375-10.027344-10.023438-10.027344zm-131.007812 299.632812-63.015625-58.855468 63.015625-46.929688zm-114.070313-45.832031-93.847656-69.894531h187.699219zm-34.714843-.851562 28.726562 21.390625c1.777344 1.324218 3.882812 1.988281 5.988281 1.988281s4.210938-.664063 5.988281-1.988281l28.726563-21.390625 63.960937 59.738281h-71.773437l-17.65625-9.339844c-2.84375-1.503906-6.234375-1.550781-9.121094-.128906-2.882812 1.421875-4.910156 4.140625-5.453125 7.3125l-.367187 2.15625h-92.976563zm97.066406 196.683593-30.402344-63.34375c-1.160156-2.417968-3.242188-4.269531-5.777344-5.144531-1.0625-.363281-2.164062-.542969-3.265625-.542969-1.527343 0-3.054687.351563-4.449219 1.042969l-16.976562 8.414063 10.636719-62.503906 7.5 3.964843c.015625.007813.027343.015625.042969.023438l52.535156 27.78125-15.96875 7.363281c-2.472656 1.136719-4.375 3.234375-5.269532 5.804688-.894531 2.570312-.707031 5.394531.519532 7.820312l29.738281 58.832031zm172.703125-80.457031h-136.339844l.289063-.132812c3.464843-1.59375 5.722656-5.019531 5.828124-8.832031.101563-3.8125-1.964843-7.351563-5.335937-9.136719l-34.675781-18.335938h59.277344c.050781 0 .101562-.007812.15625-.007812.285156-.003907.566406-.015625.851562-.042969.332031-.03125.660156-.082031.984375-.148438h.003906c.667969-.136718 1.308594-.335937 1.917969-.59375.09375-.039062.183594-.089843.277344-.132812.207031-.097656.414062-.191406.613281-.300781.132813-.070313.257813-.15625.386719-.234375.15625-.09375.316406-.1875.464844-.289063.125-.085937.246093-.183593.371093-.277343.144531-.109376.292969-.21875.433594-.335938.113281-.09375.21875-.199219.328125-.300781.144531-.132813.285156-.265625.421875-.40625.039063-.039063.082031-.070313.117187-.113281.066407-.070313.125-.148438.191407-.222657.117187-.132812.230469-.265625.339843-.40625.101563-.128906.195313-.253906.289063-.386719.097656-.132812.191406-.269531.28125-.40625.089844-.140624.175781-.285156.257813-.429687.082031-.136719.15625-.277344.230468-.417969.078125-.148437.148438-.300781.21875-.453125.066406-.144531.125-.289062.183594-.4375.0625-.15625.121094-.3125.171875-.46875.054687-.152343.101563-.304687.144531-.460937.046875-.160156.085938-.320313.125-.484375.035156-.152344.070313-.308594.097656-.464844.03125-.171875.054688-.34375.078126-.515625.019531-.148438.035156-.300781.050781-.453125.011719-.1875.023437-.371094.027343-.558594 0-.09375.011719-.183593.011719-.277343v-148.832032c0-.066406-.007812-.132812-.007812-.203125-.003907-.195312-.015625-.386719-.03125-.582031-.007813-.140625-.023438-.28125-.039063-.417969-.019531-.183593-.050781-.367187-.082031-.550781-.027344-.144531-.054687-.289062-.085937-.433594-.035157-.171875-.082032-.339844-.128907-.507812-.042969-.152344-.085937-.304688-.132812-.453125-.050781-.15625-.109375-.308594-.171875-.460938-.058594-.15625-.121094-.3125-.1875-.464843-.0625-.140626-.132813-.28125-.203125-.417969-.082031-.160157-.160157-.316407-.25-.472657-.074219-.125-.152344-.253906-.230469-.378906-.097656-.15625-.203125-.3125-.308594-.460937-.042968-.0625-.078125-.125-.121094-.179688-.046874-.066406-.101562-.121093-.148437-.179687-.109375-.140625-.222656-.277344-.339844-.410156-.105469-.125-.214843-.246094-.328125-.363282-.109375-.109375-.21875-.21875-.332031-.328125-.128906-.121093-.261719-.242187-.394531-.355469-.109375-.09375-.21875-.179687-.332032-.269531-.144531-.113281-.289062-.222656-.4375-.328125-.121093-.082031-.242187-.160156-.367187-.238281-.144531-.09375-.292969-.1875-.445313-.269531-.140624-.082032-.28125-.152344-.425781-.226563-.140625-.070312-.28125-.140625-.421875-.199219-.164062-.074218-.328125-.140624-.496094-.203124-.132812-.050782-.261718-.097657-.394531-.144532-.175781-.058594-.355469-.109375-.535156-.160156-.136719-.035156-.269531-.070312-.40625-.101562-.175781-.042969-.351563-.074219-.527344-.105469-.152343-.023438-.304687-.050781-.457031-.070313-.164062-.019531-.324219-.035156-.488281-.046875-.175781-.011719-.355469-.023437-.53125-.027343-.078125 0-.15625-.011719-.230469-.011719h-248.203125c-.078125 0-.15625.011719-.234375.011719-.175781.003906-.351562.015624-.523438.027343-.167968.011719-.332031.027344-.496093.046875-.152344.019532-.300781.042969-.449219.070313-.179688.03125-.359375.0625-.535156.101562-.136719.03125-.265625.066407-.398438.105469-.183594.046875-.363281.097656-.539062.160156-.136719.042969-.265625.09375-.398438.144532-.164062.0625-.332031.128906-.496094.199218-.140624.0625-.28125.132813-.421874.203125-.144532.074219-.285157.144531-.425782.222657-.152344.085937-.300781.179687-.449218.273437-.121094.078125-.242188.152344-.359376.234375-.152343.105469-.296874.21875-.445312.332031-.109375.085938-.21875.175781-.328125.265625-.132813.117188-.265625.238282-.398437.363282-.109376.105468-.21875.210937-.328126.320312-.113281.121094-.222656.242188-.332031.367188-.113281.132812-.226562.269531-.335937.40625-.046875.0625-.101563.117187-.148438.183593-.042968.054688-.078125.117188-.121094.179688-.105468.148437-.207031.304687-.308593.460937-.078125.125-.15625.253906-.230469.378906-.089844.15625-.167969.3125-.25.472657-.070312.136719-.140625.277343-.203125.417969-.066406.152343-.128906.308593-.1875.464843-.058594.152344-.117187.304688-.171875.460938-.046875.148437-.089844.300781-.132812.453125-.046876.167968-.09375.335937-.128907.507812-.035156.144532-.058593.289063-.085937.433594-.03125.183594-.0625.367188-.082032.550781-.015624.140625-.027343.277344-.039062.417969-.015625.195312-.027344.386719-.03125.582031 0 .070313-.007812.136719-.007812.203125v28.871094c0 5.535156 4.488281 10.023438 10.023437 10.023438 5.539063 0 10.027344-4.488282 10.027344-10.023438v-8.902344l63.015625 46.929688-63.015625 58.851562v-16.421875c0-5.539062-4.488281-10.027343-10.027344-10.027343-5.535156 0-10.023437 4.488281-10.023437 10.027343v39.503907c0 .09375.011718.183593.011718.277343.007813.1875.015625.371094.03125.558594.011719.152344.027344.304687.046875.453125.023438.171875.046875.34375.078125.515625.03125.15625.0625.3125.097656.464844.039063.164062.078126.324219.125.484375.042969.15625.09375.308594.144532.460937.050781.15625.109375.3125.171875.46875.058593.148438.121093.292969.183593.4375.070313.152344.144532.304688.21875.453125.074219.144532.148438.28125.230469.417969.082031.144531.167969.289063.257813.429687.089844.136719.183594.273438.28125.410157.09375.128906.1875.257812.285156.382812.113281.140625.226562.273438.34375.40625.066406.074219.121094.152344.191406.226563.039063.039062.078125.074218.117188.113281.136718.140625.277344.273437.421875.40625.109375.097656.214843.203125.328125.296875.140625.117188.289062.226562.433594.335938.125.09375.246093.191406.371093.277343.148438.101563.308594.195313.460938.289063.132812.078125.257812.164062.390625.234375.199218.109375.40625.203125.613281.300781.09375.042969.183594.09375.273437.132812.613282.257813 1.253907.457032 1.921876.59375h.003906c.324218.066407.652344.117188.984375.148438.28125.03125.566406.039062.851562.042969.054688.003906.105469.007812.15625.007812h114.992188l-6.199219 36.441407h-221.542969v-254.808594h471.898438zm0 0"/><path d="m30.386719 58.050781c0 14.808594 12.050781 26.859375 26.859375 26.859375s26.859375-12.046875 26.859375-26.859375c0-14.808593-12.050781-26.859375-26.859375-26.859375s-26.859375 12.050782-26.859375 26.859375zm33.667969 0c0 3.753907-3.054688 6.808594-6.808594 6.808594s-6.804688-3.054687-6.804688-6.808594c0-3.753906 3.050782-6.804687 6.804688-6.804687s6.808594 3.050781 6.808594 6.804687zm0 0"/><path d="m86.835938 58.050781c0 14.808594 12.046874 26.859375 26.855468 26.859375s26.859375-12.046875 26.859375-26.859375c0-14.808593-12.050781-26.859375-26.859375-26.859375s-26.855468 12.050782-26.855468 26.859375zm33.664062 0c0 3.753907-3.054688 6.808594-6.808594 6.808594-3.75 0-6.804687-3.054687-6.804687-6.808594 0-3.753906 3.054687-6.804687 6.804687-6.804687 3.753906 0 6.808594 3.050781 6.808594 6.804687zm0 0"/><path d="m143.28125 58.050781c0 14.808594 12.050781 26.859375 26.859375 26.859375s26.855469-12.046875 26.855469-26.859375c0-14.808593-12.046875-26.859375-26.855469-26.859375s-26.859375 12.050782-26.859375 26.859375zm33.664062 0c0 3.753907-3.054687 6.808594-6.804687 6.808594-3.753906 0-6.808594-3.054687-6.808594-6.808594 0-3.753906 3.054688-6.804687 6.808594-6.804687 3.75 0 6.804687 3.050781 6.804687 6.804687zm0 0"/><path d="m362.875 14.789062c1.578125 3.898438 5.335938 6.265626 9.296875 6.265626 1.253906 0 2.527344-.234376 3.761719-.734376 5.128906-2.078124 7.609375-7.921874 5.53125-13.054687l-.203125-.5c-2.074219-5.132813-7.917969-7.609375-13.054688-5.53125-5.132812 2.078125-7.609375 7.921875-5.53125 13.054687zm0 0"/><path d="m123.601562 249.367188c1.578126 3.902343 5.332032 6.269531 9.296876 6.269531 1.253906 0 2.527343-.234375 3.757812-.730469 5.132812-2.078125 7.613281-7.921875 5.535156-13.054688l-.203125-.5c-2.074219-5.132812-7.917969-7.613281-13.050781-5.535156-5.132812 2.074219-7.613281 7.917969-5.539062 13.050782zm0 0"/></svg>