<?xml version="1.0" encoding="iso-8859-1"?>
<!-- Generator: Adobe Illustrator 21.0.0, SVG Export Plug-In . SVG Version: 6.00 Build 0)  -->
<svg xmlns="http://www.w3.org/2000/svg" xmlns:xlink="http://www.w3.org/1999/xlink" version="1.1" id="Capa_1" x="0px" y="0px" viewBox="0 0 512 512" style="enable-background:new 0 0 512 512;" xml:space="preserve" width="512" height="512">
<path d="M447.671,200.855c1.526-5.086,2.296-10.368,2.296-15.786c0-30.409-24.768-55.149-55.211-55.149  c-4.899,0-9.759,0.653-14.449,1.924c0.333-3.373,0.501-6.766,0.501-10.161c0-56.684-46.171-102.8-102.922-102.8  c-55.38,0-100.684,43.911-102.842,98.706c-11.446-6.776-24.544-10.401-38.103-10.401c-9.569,0-18.894,1.78-27.715,5.29  c-8.987,3.578-3.442,17.508,5.547,13.938c7.048-2.806,14.507-4.228,22.168-4.228c15.313,0,29.895,5.783,41.058,16.283  c4.993,4.7,13.391,0.44,12.587-6.346c-4.662-39.265,18.391-77.709,55.18-92.177c10.208-4.015,21.152-6.066,32.12-6.066  c48.48,0,87.922,39.387,87.922,87.8c0,6.915-0.813,13.813-2.415,20.504c-1.501,6.273,5.492,11.489,11.081,8.221  c6.138-3.59,13.15-5.487,20.282-5.487c22.173,0,40.211,18.011,40.211,40.149c0,6.248-1.405,12.242-4.176,17.816  c-2.194,4.412,0.583,9.881,5.425,10.727C471.437,219.769,497,250.186,497,285.936v0.976c0,40.5-32.996,73.449-73.554,73.449h-43.367  v-13.826c0-7.131-5.802-12.933-12.934-12.933H311.5v-48.998h44.237c6.187,0,9.736-7.436,5.809-12.244l-77.978-95.469  c-1.425-1.744-3.557-2.756-5.809-2.756s-4.384,1.012-5.809,2.756l-77.979,95.469c-3.927,4.805-0.382,12.244,5.809,12.244H244.5  v48.998h-44.251c-3.733-5.253-11.1-15.598-14.364-20.059c-3.076-4.203-7.007-5.085-9.763-5.085h-31.268  c-7.132,0-12.934,5.802-12.934,12.933v38.97H88.554C47.996,360.36,15,327.411,15,286.911v-0.976  c0-35.561,25.404-65.948,60.405-72.255c4.568-0.822,7.346-5.753,5.663-10.092c-2.678-6.906-4.035-14.167-4.035-21.579  c0-13.94,4.905-27.511,13.813-38.212c6.187-7.434-5.342-17.032-11.529-9.596c-11.146,13.39-17.283,30.368-17.283,47.808  c0,6.391,0.807,12.69,2.404,18.818C26.632,211.442,0,245.977,0,285.936v0.976c0,48.771,39.725,88.449,88.554,88.449h43.367v104.823  c0,7.132,5.802,12.934,12.934,12.934h222.521c7.005,0,12.704-5.699,12.704-12.704V446c0-9.673-15-9.673-15,0v32.117H146.921V323.458  h27.629c4.816,6.631,15.596,21.822,15.71,21.983c1.407,1.982,3.687,3.16,6.117,3.16H244.5v66.53c0,4.143,3.357,7.5,7.5,7.5h52  c4.143,0,7.5-3.357,7.5-7.5v-66.53h53.579V414c0,9.673,15,9.673,15,0v-38.64h43.367c48.829,0,88.554-39.678,88.554-88.449v-0.976  C512,245.945,485.44,211.497,447.671,200.855z M296.5,407.632h-37V277.104c0-4.143-3.357-7.5-7.5-7.5h-36.409l62.169-76.112  l62.168,76.112H304c-4.143,0-7.5,3.357-7.5,7.5V407.632z"/>















</svg>
