<svg height="512pt" viewBox="0 -56 512 511" width="512pt" xmlns="http://www.w3.org/2000/svg"><path d="m504.5 336.140625c4.140625 0 7.5-3.355469 7.5-7.5v-248.496094c0-17.394531-14.152344-31.546875-31.546875-31.546875h-120.242187c-6.542969 0-12.925782-2.675781-17.511719-7.335937l-28.476563-28.945313c-7.390625-7.507812-17.667968-11.816406-28.203125-11.816406h-254.472656c-17.394531 0-31.546875 14.152344-31.546875 31.546875v336.679687c0 17.394532 14.152344 31.546876 31.546875 31.546876h448.902344c17.398437 0 31.550781-14.152344 31.550781-31.546876v-8.019531c0-4.144531-3.359375-7.5-7.5-7.5-4.144531 0-7.5 3.355469-7.5 7.5v8.019531c0 9.125-7.425781 16.546876-16.550781 16.546876h-448.902344c-9.125 0-16.546875-7.421876-16.546875-16.546876v-336.679687c0-9.125 7.421875-16.546875 16.546875-16.546875h138.875c6.539063 0 12.921875 2.675781 17.507813 7.335938l28.476562 28.945312c7.390625 7.507812 17.667969 11.816406 28.203125 11.816406h235.839844c9.125 0 16.550781 7.421875 16.550781 16.546875v248.5c0 4.140625 3.359375 7.496094 7.5 7.496094zm-200.96875-313.304687 25.34375 25.761718h-24.777344c-6.542968 0-12.925781-2.675781-17.511718-7.335937l-25.34375-25.761719h24.777343c6.542969 0 12.921875 2.675781 17.511719 7.335938zm-76.429688 18.425781-25.347656-25.761719h28.152344c6.542969 0 12.921875 2.675781 17.511719 7.335938l25.34375 25.761718h-28.152344c-6.539063 0-12.921875-2.675781-17.507813-7.335937zm0 0"/><path d="m360.210938 255.984375c17.394531 0 31.546874-14.152344 31.546874-31.546875 0-17.398438-14.152343-31.550781-31.546874-31.550781-10.226563 0-19.328126 4.894531-25.097657 12.460937l-85.8125-37.3125c-3.800781-1.652344-8.21875.089844-9.871093 3.886719-1.652344 3.800781.089843 8.21875 3.890624 9.867187l85.800782 37.308594c-.296875 1.738282-.460938 3.515625-.460938 5.335938 0 1.820312.164063 3.601562.460938 5.339844l-128.1875 55.734374c-5.769532-7.566406-14.867188-12.460937-25.09375-12.460937-17.398438 0-31.550782 14.152344-31.550782 31.550781 0 17.394532 14.152344 31.546875 31.550782 31.546875 17.394531 0 31.546875-14.152343 31.546875-31.546875 0-1.820312-.164063-3.605468-.460938-5.339844l128.1875-55.734374c5.769531 7.566406 14.871094 12.460937 25.097657 12.460937zm-184.371094 65.160156c-9.125 0-16.550782-7.421875-16.550782-16.546875s7.425782-16.550781 16.550782-16.550781 16.546875 7.425781 16.546875 16.550781-7.421875 16.546875-16.546875 16.546875zm184.371094-113.257812c9.125 0 16.546874 7.421875 16.546874 16.546875s-7.421874 16.550781-16.546874 16.550781-16.550782-7.425781-16.550782-16.550781 7.425782-16.546875 16.550782-16.546875zm0 0"/><path d="m175.839844 112.726562c-17.398438 0-31.550782 14.152344-31.550782 31.546876 0 17.398437 14.152344 31.546874 31.550782 31.546874 10.226562 0 19.324218-4.890624 25.09375-12.457031l11.953125 5.195313c.972656.421875 1.984375.625 2.984375.625 2.894531 0 5.652344-1.6875 6.882812-4.511719 1.652344-3.800781-.089844-8.21875-3.890625-9.867187l-11.9375-5.191407c.296875-1.738281.460938-3.519531.460938-5.339843 0-17.394532-14.152344-31.546876-31.546875-31.546876zm0 48.097657c-9.125 0-16.550782-7.425781-16.550782-16.550781s7.425782-16.546876 16.550782-16.546876 16.546875 7.421876 16.546875 16.546876-7.421875 16.550781-16.546875 16.550781zm0 0"/></svg>