<svg height="512pt" viewBox="0 0 512 512" width="512pt" xmlns="http://www.w3.org/2000/svg"><path d="m422.234375 412h-.269531c-5.523438 0-10 4.476562-10 10s4.476562 10 10 10h.269531c5.523437 0 10-4.476562 10-10s-4.476563-10-10-10zm0 0"/><path d="m69.042969 72h.320312c5.519531 0 10-4.476562 10-10 0-5.519531-4.480469-10-10-10h-.320312c-5.523438 0-10 4.480469-10 10 0 5.523438 4.476562 10 10 10zm0 0"/><path d="m482 52h-23.125c-17.519531-31.011719-50.792969-52-88.878906-52-38.089844 0-71.359375 20.988281-88.878906 52h-172.152344c-5.523438 0-10 4.480469-10 10 0 5.523438 4.476562 10 10 10h163.53125c-1.976563 6.421875-3.339844 13.113281-4.011719 20.003906h-248.484375v-10.003906c0-5.511719 4.484375-10 10-10h10c5.523438 0 10-4.476562 10-10 0-5.519531-4.476562-10-10-10h-10c-16.542969 0-30 13.460938-30 30v320c0 16.542969 13.457031 30 30 30h164.828125l-7.824219 60h-11.003906c-5.523438 0-10 4.476562-10 10s4.476562 10 10 10h160c5.523438 0 10-4.476562 10-10s-4.476562-10-10-10h-11.003906l-7.824219-60h64.828125c5.523438 0 10-4.476562 10-10s-4.476562-10-10-10h-352c-5.511719 0-10-4.484375-10-10v-20h177.714844c4.125 11.640625 15.246094 20 28.285156 20h60c13.039062 0 24.160156-8.359375 28.285156-20h177.710938v20c0 5.515625-4.484375 10-10 10h-31.035156c-5.523438 0-10 4.476562-10 10s4.476562 10 10 10h31.035156c16.542968 0 30-13.457031 30-30v-320c0-16.539062-13.457032-30-29.996094-30zm-177.175781 440h-97.652344l7.824219-60h82.007812zm177.175781-420c5.511719 0 10 4.488281 10 10v10.003906h-20.492188c-.671874-6.890625-2.035156-13.582031-4.015624-20.003906zm-112.003906-52c45.214844 0 82.003906 36.785156 82.003906 82.003906 0 45.214844-36.789062 82-82.003906 82s-82.003906-36.785156-82.003906-82c0-45.21875 36.785156-82.003906 82.003906-82.003906zm122 342h-185.996094c-5.523438 0-10 4.476562-10 10 0 5.511719-4.488281 10-10 10h-60c-5.515625 0-10-4.488281-10-10 0-5.523438-4.476562-10-10-10h-186v-249.996094h248.484375c5.039063 51.566406 48.640625 92 101.511719 92s96.46875-40.433594 101.511718-92h20.492188zm0 0"/><path d="m311.960938 219.859375c-15.121094-8.730469-30.238282-17.464844-45.355469-26.199219-15.234375-8.800781-30.46875-17.601562-45.703125-26.394531-6.082032-3.933594-13.796875-4.265625-20.238282-.84375-6.546874 3.472656-10.613281 10.234375-10.613281 17.648437l.042969 106.164063c-.003906 7.199219 3.726562 13.660156 9.984375 17.28125 3.125 1.808594 6.554687 2.710937 9.984375 2.710937 3.417969 0 6.832031-.898437 9.949219-2.691406l91.984375-53.105468c6.144531-3.550782 9.957031-10.183594 9.953125-17.308594-.007813-7.207032-3.742188-13.664063-9.988281-17.261719zm-101.867188 70.304687-.039062-106.097656c.191406.132813.390624.253906.589843.371094 15.320313 8.84375 30.636719 17.691406 45.953125 26.539062 15.085938 8.71875 30.171875 17.433594 45.316406 26.179688zm0 0"/><path d="m306.355469 92.503906c3.90625 3.90625 10.238281 3.90625 14.144531 0 13.21875-13.21875 30.796875-20.5 49.496094-20.5 18.695312 0 36.273437 7.28125 49.496094 20.5 1.953124 1.953125 4.511718 2.929688 7.070312 2.929688s5.121094-.976563 7.070312-2.929688c3.90625-3.902344 3.90625-10.234375 0-14.140625-16.996093-17-39.597656-26.359375-63.636718-26.359375-24.042969 0-46.640625 9.359375-63.640625 26.359375-3.90625 3.90625-3.90625 10.238281 0 14.140625zm0 0"/><path d="m334.640625 106.648438c-3.90625 3.902343-3.90625 10.234374 0 14.140624 1.953125 1.953126 4.511719 2.929688 7.070313 2.929688 2.558593 0 5.117187-.976562 7.070312-2.929688 11.699219-11.695312 30.730469-11.695312 42.425781 0 3.90625 3.90625 10.238281 3.90625 14.144531 0s3.90625-10.238281 0-14.140624c-19.496093-19.496094-51.21875-19.496094-70.710937 0zm0 0"/><path d="m370.003906 132.003906h-.019531c-5.523437 0-9.988281 4.476563-9.988281 10 0 5.519532 4.488281 10 10.007812 10 5.523438 0 10-4.480468 10-10 0-5.523437-4.476562-10-10-10zm0 0"/></svg>