<?xml version="1.0" encoding="iso-8859-1"?>
<!-- Generator: Adobe Illustrator 18.1.1, SVG Export Plug-In . SVG Version: 6.00 Build 0)  -->
<svg version="1.1" id="Capa_1" xmlns="http://www.w3.org/2000/svg" xmlns:xlink="http://www.w3.org/1999/xlink" x="0px" y="0px"
	 viewBox="0 0 323.613 323.613" style="enable-background:new 0 0 323.613 323.613;" xml:space="preserve">
<g>
	<g>
		<g>
			<rect x="61.342" y="180.18" style="fill:#010002;" width="54.478" height="7.539"/>
		</g>
		<g>
			<g>
				<path style="fill:#010002;" d="M254.804,51.894H73.862L45.248,168.149v3.296v41.826h232.118v-41.826v-3.519L254.804,51.894z
					 M108.803,87.362c0.288-1.583,0.925-3.166,1.942-4.808c1.11-1.73,2.594-3.356,4.362-4.748l-0.141-0.082l5.292-3.285
					c3.883-2.393,10.079-2.458,13.81-0.158l18.797,11.574c3.737,2.301,3.617,6.119-0.25,8.512l-3.127,1.925l-6.347,3.905
					c0.326,0.364,0.658,0.74,1.012,1.126c3.312,3.688,7.859,8.735,16.497,14.06c8.61,5.303,16.79,8.099,22.768,10.144
					c0.647,0.223,1.273,0.441,1.866,0.636l9.475-5.831c3.873-2.382,10.079-2.458,13.81-0.169l18.787,11.574
					c3.737,2.312,3.617,6.124-0.256,8.512l-5.357,3.236l-0.114-0.054c-2.268,1.093-4.873,2.002-7.664,2.676
					c-2.605,0.62-5.162,1.017-7.832,1.218c-1.229,0.082-29.643,1.724-64.904-20.005C115.727,111.62,106.328,100.035,108.803,87.362z
					 M271.464,207.381H51.133v-35.93h220.331V207.381z"/>
			</g>
			<g>
				<path style="fill:#010002;" d="M242.62,198.189c5.782,0,10.476-4.705,10.476-10.476c0-5.782-4.694-10.487-10.476-10.487
					s-10.476,4.705-10.476,10.487C232.15,193.484,236.844,198.189,242.62,198.189z M242.62,183.122c2.529,0,4.591,2.061,4.591,4.596
					c0,2.524-2.061,4.58-4.591,4.58c-2.524,0-4.591-2.056-4.591-4.58C238.035,185.184,240.102,183.122,242.62,183.122z"/>
			</g>
			<g>
				<circle style="fill:#010002;" cx="136.95" cy="190.813" r="4.906"/>
			</g>
			<g>
				<path style="fill:#010002;" d="M151.674,195.719c2.709,0,4.911-2.181,4.911-4.89c0-2.714-2.203-4.917-4.911-4.917
					C148.965,185.913,148.965,195.719,151.674,195.719z"/>
			</g>
			<g>
				<circle style="fill:#010002;" cx="164.874" cy="190.813" r="4.906"/>
			</g>
		</g>
		<g>
			<path style="fill:#010002;" d="M323.613,255.304H184.847c-1.354-6.005-6.712-10.535-13.13-10.535h-7.446v-29.964h-5.891v29.964
				h-7.452c-6.407,0-11.776,4.525-13.124,10.535H0v5.891h137.81c1.354,6.01,6.717,10.525,13.124,10.525h20.783
				c6.418,0,11.776-4.509,13.13-10.525h138.767V255.304z M171.717,265.834h-20.783c-4.183,0-7.587-3.405-7.587-7.587
				s3.405-7.582,7.587-7.582h20.783c4.194,0,7.587,3.399,7.587,7.582S175.91,265.834,171.717,265.834z"/>
		</g>
	</g>
</g>
<g>
</g>
<g>
</g>
<g>
</g>
<g>
</g>
<g>
</g>
<g>
</g>
<g>
</g>
<g>
</g>
<g>
</g>
<g>
</g>
<g>
</g>
<g>
</g>
<g>
</g>
<g>
</g>
<g>
</g>
</svg>
